# xmcd
#
# Track frame offsets:
#	150
#	14432
#	26665
#	41172
#	49570
#	62930
#	77872
#	90357
#	101440
#	113322
#	125587
#	135340
#	144812
#	153592
#	162872
#	176020
#
# Disc length: 2505 seconds
#
# Revision: 3
# Processed by: cddbd v1.5.2PL0 Copyright (c) Steve Scherf et al.
# Submitted via: audiograbber 1.83.01
#
DISCID=c409c710
DTITLE=Ernest Tubb and Friends - It's country time - CD1-3
DYEAR=1993
DGENRE=Country
TTITLE0=Let's say goodbye like we said hello (& Johnny Paycheck)
TTITLE1=Sad songs and waltzes (& Gene Watson)
TTITLE2=When the world has turned you down (& Vern Gosdin)
TTITLE3=I ain't been right since you went wrong
TTITLE4=Blue eyed Elaine Tubb)(& Justin 
TTITLE5=Rainbow at midnight
TTITLE6=The women make a fool out of me (& Conway Twitty)
TTITLE7=I've got a good mind to love her anyway
TTITLE8=You're the only good thing that's happened to me (& Charlie Rich)
TTITLE9=There's a little bit of everything in Texas (& Roy Clark)
TTITLE10=Mr. Jukebox (& Jack Greene)
TTITLE11=Walking the floor over you (& Merle Haggard, C. Daniels)
TTITLE12=That wild and wicked look in your eyes (& Razzy Bailey)
TTITLE13=Jealous loving heart (& Johnny Cash)
TTITLE14=Driftwood on the river (& Billy Walker)
TTITLE15=Half a mind (& Georges Jones)
EXTD=
EXTT0=
EXTT1=
EXTT2=
EXTT3=
EXTT4=
EXTT5=
EXTT6=
EXTT7=
EXTT8=
EXTT9=
EXTT10=
EXTT11=
EXTT12=
EXTT13=
EXTT14=
EXTT15=
PLAYORDER=
